<svg width="720" height="720" xmlns="http://www.w3.org/2000/svg" xmlns:xlink="http://www.w3.org/1999/xlink" xml:space="preserve" overflow="hidden"><g transform="translate(55 14)"><path d="M575 346.767C575 495.883 454.117 616.766 305 616.766 155.883 616.766 35 495.883 35 346.766 35 197.65 155.883 76.7665 305 76.7665 454.117 76.7665 575 197.65 575 346.767Z" fill="#23574C"/><path d="M484.1 269.388C484.1 262.671 476.938 254.275 468.917 255.271 462.832 257.182 458.417 262.866 458.417 269.582 458.417 276.299 462.832 281.982 468.917 283.894 477.5 284.875 484.1 276.104 484.1 269.388Z" fill="#737373"/><path d="M473.808 254.587C472.109 254.544 470.472 254.785 468.94 255.263 468.927 255.267 468.927 255.274 468.94 255.278 475.013 257.196 479.416 262.874 479.416 269.582 479.416 276.29 475.012 281.968 468.94 283.887 468.927 283.89 468.927 283.897 468.94 283.901 470.353 284.342 471.857 284.582 473.416 284.582 481.945 284.582 488.81 277.466 488.399 268.848 488.029 261.092 481.572 254.787 473.808 254.587Z" fill="#505050"/><path d="M171.441 270.81C170.593 268.94 169.623 267.14 168.537 265.417 162.715 256.182 153.633 249.218 142.901 246.134 140.086 245.325 137.161 244.784 134.149 244.539 132.929 244.44 131.699 244.375 130.452 244.375 127.023 244.375 123.689 244.771 120.48 245.498 120.48 245.498 109.95 249.85 102.05 258.15 91.7607 268.96 86.5745 279.402 86.5745 279.402 85.8485 282.612 85.4518 285.946 85.4518 289.375 85.4518 292.213 85.7262 294.986 86.2287 297.677 86.6855 300.12 87.3275 302.497 88.1615 304.784 90.041 309.943 92.8467 314.654 96.3643 318.734 98.6127 321.343 101.152 323.692 103.939 325.728 111.376 331.16 120.537 334.375 130.452 334.375 131.833 334.375 133.196 334.303 134.545 334.182 134.545 334.182 142.738 333.328 160.25 317.55 170.35 308.45 175.258 293.469 175.258 293.469 175.38 292.119 175.452 290.757 175.452 289.375 175.452 282.753 174.01 276.471 171.441 270.81Z" fill="#737373"/><path d="M142.883 246.128C139.967 245.198 136.611 244.6 134.149 244.539 134.149 244.539 125.223 248.104 111.702 261.625 91.4518 281.875 86.2205 297.705 86.2205 297.705 86.4973 299.612 87.2285 302.481 88.1495 304.763 88.1548 304.776 88.1608 304.776 88.1645 304.763 88.3295 304.139 91.9828 291.094 113.202 269.875 132.771 250.306 142.466 246.307 142.887 246.139 142.896 246.135 142.893 246.131 142.883 246.128Z" fill="#505050"/><path d="M86.594 279.384 120.46 245.517C120.471 245.506 120.468 245.501 120.454 245.504 103.632 249.323 90.3988 262.555 86.5805 279.376 86.5775 279.39 86.5835 279.394 86.594 279.384Z" fill="#505050"/><path d="M134.574 334.179C156.135 332.22 173.296 315.059 175.256 293.497 175.258 293.481 175.252 293.478 175.243 293.491 174.795 294.127 164.782 308.294 157.452 315.625 150.117 322.961 135.218 333.698 134.568 334.166 134.555 334.175 134.558 334.181 134.574 334.179Z" fill="#505050"/><path d="M168.543 265.412C168.543 265.412 140.493 291.172 134.952 276.625 128.952 260.875 96.3643 318.734 96.3643 318.734 98.2842 321.091 100.988 323.654 103.932 325.731L171.445 270.805C170.637 268.934 169.67 267.12 168.543 265.412Z" fill="#505050"/><path d="M155.059 296.873C152.13 293.944 142.87 298.455 134.376 306.949 125.882 315.443 121.371 324.703 124.299 327.632 127.229 330.561 136.488 326.05 144.982 317.556 153.477 309.062 157.988 299.802 155.059 296.873ZM141.678 311.918C138.177 315.419 134.361 317.279 133.154 316.073 131.948 314.866 133.808 311.049 137.31 307.548 140.811 304.047 144.628 302.186 145.834 303.393 147.041 304.599 145.18 308.416 141.678 311.918Z" fill="#2F2F2F"/><path d="M381.904 193.652C379.775 191.523 377.449 189.714 374.992 188.204 374.992 188.204 355.7 191.65 341.9 203.8 328.1 215.95 320.151 233.004 320.151 233.004 321.966 237.995 324.867 242.682 328.871 246.685 333.256 251.07 338.46 254.133 343.988 255.891 343.988 255.891 363.8 243.4 375.65 229.9 387.5 216.4 388.615 202.765 388.615 202.765 386.895 199.486 384.66 196.407 381.904 193.652Z" fill="#737373"/><path d="M381.904 246.685C390.53 238.059 394.07 226.276 392.533 215.054 392.533 215.054 390.018 211.568 387.2 214.75 384.381 217.932 378.307 228.807 371.45 235.15 364.442 241.634 354.094 248.393 350.75 251.65 347.406 254.906 350.273 257.315 350.273 257.315 361.495 258.851 373.278 255.311 381.904 246.685Z" fill="#737373"/><path d="M328.871 193.652C318.229 204.293 315.329 219.736 320.151 233.004L374.992 188.204C360.545 179.326 341.387 181.136 328.871 193.652Z" fill="#505050"/><path d="M388.615 202.765C388.615 202.765 379.578 218.821 368 230.65 354.2 244.75 338.698 253.735 338.698 253.735 340.417 254.589 342.183 255.317 343.988 255.891 344.518 256.059 345.05 256.215 345.585 256.36 345.589 256.362 345.591 256.362 345.595 256.363 346.127 256.507 346.661 256.638 347.197 256.758 347.197 256.758 347.197 256.758 347.197 256.758L347.197 256.758C348.216 256.986 349.242 257.174 350.273 257.315 350.273 257.315 362.75 250.573 373.25 240.823 383.75 231.073 392.533 215.054 392.533 215.054 391.953 210.81 390.648 206.647 388.615 202.765Z" fill="#2F2F2F"/><path d="M404.166 176.375C400.393 172.602 388.882 177.464 374.505 187.941 375.766 188.685 376.989 189.516 378.174 190.419 384.358 186.987 389.006 185.861 390.925 187.78 392.923 189.778 391.614 194.736 387.847 201.302 383.307 209.216 375.192 219.468 364.939 229.721 354.687 239.973 344.434 248.089 336.52 252.629 329.955 256.396 324.997 257.705 322.999 255.706 321.08 253.787 322.206 249.14 325.638 242.955 324.735 241.77 323.903 240.548 323.16 239.286 312.682 253.664 307.82 265.174 311.594 268.947 315.555 272.908 328.04 267.354 343.416 255.778 351.35 249.807 360.051 242.233 368.752 233.533 377.451 224.833 385.025 216.131 390.996 208.198 402.574 192.821 408.127 180.336 404.166 176.375Z" fill="#505050"/><path d="M315.125 134.5C315.125 121.338 301.175 106.45 285.714 107.32 273.571 110.556 264.623 121.624 264.623 134.786 264.623 147.948 273.571 159.017 285.714 162.251 300.575 163.975 315.125 147.662 315.125 134.5Z" fill="#F2F2F2"/><path d="M295.91 106.502C292.367 106.149 288.944 106.463 285.741 107.313 285.726 107.317 285.726 107.324 285.741 107.327 297.87 110.572 306.805 121.634 306.805 134.786 306.805 147.938 297.415 158.884 285.286 162.128 285.271 162.133 285.271 162.139 285.286 162.143 287.619 162.763 290.523 163.212 293.049 163.212 309.308 163.212 322.378 149.564 321.427 133.1 320.629 119.266 309.699 107.872 295.91 106.502Z" fill="#D2D2D2"/><path d="M311.826 141.801C310.257 141.801 308.984 143.073 308.984 144.644 308.984 146.214 310.257 147.486 311.826 147.486 313.396 147.486 314.669 146.214 314.669 144.644 314.669 143.073 313.396 141.801 311.826 141.801Z" fill="#F2F2F2"/><path d="M293.078 117.18C286.844 117.18 281.79 122.234 281.79 128.468 281.79 134.703 286.844 139.757 293.078 139.757 299.313 139.757 304.367 134.703 304.367 128.468 304.367 122.234 299.313 117.18 293.078 117.18ZM293.078 133.829C289.545 133.829 286.681 130.964 286.681 127.431 286.681 123.897 289.545 121.033 293.078 121.033 296.611 121.033 299.476 123.897 299.476 127.431 299.476 130.964 296.612 133.829 293.078 133.829Z" fill="#E6E6E6"/><path d="M293.078 121.033C289.545 121.033 286.681 123.897 286.681 127.431 286.681 130.964 289.545 133.829 293.078 133.829 296.611 133.829 299.476 130.964 299.476 127.431 299.476 123.897 296.612 121.033 293.078 121.033Z" fill="#F2F2F2"/><path d="M277.491 122.527C279.603 119.048 278.945 114.658 276.19 111.902 271.231 115.45 267.725 120.1 266.098 125.709 270.105 127.77 275.118 126.438 277.491 122.527Z" fill="#E6E6E6"/><path d="M290.107 150.434C289.515 144.572 284.991 139.709 279.185 138.706 273.867 137.787 268.975 140.109 266.132 143.963 266.861 146.535 268.067 148.884 269.671 150.962 270.095 147.231 273.522 144.377 277.475 144.945 280.433 145.371 282.827 147.771 283.242 150.731 283.789 154.634 281.017 158.011 277.351 158.492 279.682 160.21 282.341 161.464 285.267 162.13 285.269 162.131 285.271 162.13 285.273 162.128 288.591 159.42 290.584 155.15 290.107 150.434Z" fill="#E6E6E6"/><path d="M465.95 473.85C457.979 459.875 446.05 448.95 438.244 450.25 432.115 456.925 428.372 465.824 428.372 475.599 428.372 481.826 429.898 487.691 432.582 492.859 435.85 497.05 440.25 500.75 444.35 503.55 449.797 507.27 451.65 508.65 457.299 512.103 460.053 512.748 462.921 513.099 465.872 513.099 470.589 513.099 475.098 512.22 479.256 510.631 479.85 502.05 473.65 487.35 465.95 473.85Z" fill="#505050"/><path d="M464.85 470.05C469.658 481.589 486.75 491.25 500.304 490.464 502.275 485.906 503.372 480.881 503.372 475.6 503.372 456.082 488.461 440.054 469.409 438.271 464.55 442.55 460.35 459.25 464.85 470.05Z" fill="#505050"/><path d="M447.122 500.5C443.076 498.086 442.567 499.264 438.122 496.75 437.459 496.374 435.218 495.068 432.613 492.884 432.597 492.87 432.591 492.874 432.6 492.893 437.575 502.444 446.536 509.58 457.282 512.099 457.291 512.102 457.295 512.096 457.291 512.088 455.232 508.237 452.779 503.875 447.122 500.5Z" fill="#737373"/><path d="M494.328 484.986C491.28 478.324 493.079 472.16 488.328 468.486 483.219 464.535 474.999 471.071 471.078 466.986 468.103 463.887 470.093 457.268 470.328 456.486 472.237 450.137 477.286 448.047 476.328 445.236 475.441 442.632 470.789 443.499 469.578 440.736 469.267 440.027 469.234 439.178 469.409 438.271 468.244 438.161 467.065 438.1 465.872 438.1 454.937 438.1 445.098 442.783 438.244 450.25 443.334 453.131 447.703 463.758 447.122 472.75 446.571 481.282 441.34 491.812 441.129 492.237 441.123 492.246 441.13 492.246 441.141 492.242 447.139 489.584 454.663 487.343 459.122 490.75 462.601 493.409 461.78 497.648 464.372 502 466.401 505.407 470.517 508.865 479.256 510.631 488.699 507.021 496.308 499.709 500.304 490.464 497.87 489.496 495.535 487.623 494.328 484.986Z" fill="#737373"/><path d="M416.32 568.407C416.32 571.1 414.138 573.282 411.445 573.282 408.753 573.282 406.57 571.1 406.57 568.407 406.57 565.715 408.753 563.532 411.445 563.532 414.138 563.532 416.32 565.715 416.32 568.407Z" fill="#FFFFFF"/><path d="M393.542 471.25C393.542 474.978 390.52 478 386.792 478 383.064 478 380.042 474.978 380.042 471.25 380.042 467.522 383.064 464.5 386.792 464.5 390.52 464.5 393.542 467.522 393.542 471.25Z" fill="#737373"/><path d="M400.292 538.782C400.292 542.51 397.27 545.532 393.542 545.532 389.814 545.532 386.792 542.51 386.792 538.782 386.792 535.054 389.814 532.032 393.542 532.032 397.27 532.032 400.292 535.054 400.292 538.782Z" fill="#FFFFFF"/><path d="M386.417 504.812C386.417 506.159 385.326 507.25 383.98 507.25 382.633 507.25 381.542 506.159 381.542 504.812 381.542 503.466 382.633 502.375 383.98 502.375 385.326 502.375 386.417 503.466 386.417 504.812Z" fill="#505050"/><path d="M387.917 487.562C387.917 488.909 386.826 490 385.48 490 384.133 490 383.042 488.909 383.042 487.562 383.042 486.216 384.133 485.125 385.48 485.125 386.826 485.125 387.917 486.216 387.917 487.562Z" fill="#FFFFFF"/><path d="M424.292 550.375C424.292 553.067 422.109 555.25 419.417 555.25 416.725 555.25 414.542 553.067 414.542 550.375 414.542 547.683 416.725 545.5 419.417 545.5 422.109 545.5 424.292 547.683 424.292 550.375Z" fill="#505050"/><path d="M368.792 477.625C368.792 480.317 366.609 482.5 363.917 482.5 361.225 482.5 359.042 480.317 359.042 477.625 359.042 474.933 361.225 472.75 363.917 472.75 366.609 472.75 368.792 474.933 368.792 477.625Z" fill="#737373"/><path d="M264.541 254.125C264.541 256.817 262.359 259 259.666 259 256.974 259 254.791 256.817 254.791 254.125 254.791 251.433 256.974 249.25 259.666 249.25 262.359 249.25 264.541 251.433 264.541 254.125Z" fill="#505050"/><path d="M273.916 302.312C273.916 303.659 272.825 304.75 271.479 304.75 270.133 304.75 269.041 303.659 269.041 302.312 269.041 300.966 270.133 299.875 271.479 299.875 272.825 299.875 273.916 300.966 273.916 302.312Z" fill="#FFFFFF"/><path d="M247.666 294.438C247.666 295.784 246.575 296.875 245.229 296.875 243.883 296.875 242.791 295.784 242.791 294.438 242.791 293.091 243.883 292 245.229 292 246.575 292 247.666 293.091 247.666 294.438Z" fill="#FFFFFF"/><path d="M325.291 317.875C325.291 320.567 323.109 322.75 320.416 322.75 317.724 322.75 315.541 320.567 315.541 317.875 315.541 315.183 317.724 313 320.416 313 323.109 313 325.291 315.183 325.291 317.875Z" fill="#FFFFFF"/><path d="M264.541 320.875C264.541 323.567 262.359 325.75 259.666 325.75 256.974 325.75 254.791 323.567 254.791 320.875 254.791 318.183 256.974 316 259.666 316 262.359 316 264.541 318.183 264.541 320.875Z" fill="#FFFFFF"/><path d="M281.791 278.875C281.791 281.567 279.609 283.75 276.916 283.75 274.224 283.75 272.041 281.567 272.041 278.875 272.041 276.183 274.224 274 276.916 274 279.609 274 281.791 276.183 281.791 278.875Z" fill="#FFFFFF"/><path d="M230.979 216.267C230.979 217.613 229.887 218.705 228.541 218.705 227.195 218.705 226.104 217.613 226.104 216.267 226.104 214.921 227.195 213.83 228.541 213.83 229.887 213.83 230.979 214.921 230.979 216.267Z" fill="#505050"/><path d="M236.416 207.062C236.416 208.409 235.325 209.5 233.979 209.5 232.633 209.5 231.541 208.409 231.541 207.062 231.541 205.716 232.633 204.625 233.979 204.625 235.325 204.625 236.416 205.716 236.416 207.062Z" fill="#F2F2F2"/><path d="M206.95 201.302C206.95 202.648 205.859 203.739 204.513 203.739 203.167 203.739 202.075 202.648 202.075 201.302 202.075 199.956 203.167 198.864 204.513 198.864 205.859 198.864 206.95 199.956 206.95 201.302Z" fill="#F2F2F2"/><path d="M170.975 151.782C170.975 153.128 169.884 154.22 168.537 154.22 167.191 154.22 166.1 153.128 166.1 151.782 166.1 150.436 167.191 149.345 168.537 149.345 169.884 149.345 170.975 150.436 170.975 151.782Z" fill="#505050"/><path d="M242.791 176.875C242.791 179.567 240.609 181.75 237.916 181.75 235.224 181.75 233.041 179.567 233.041 176.875 233.041 174.183 235.224 172 237.916 172 240.609 172 242.791 174.183 242.791 176.875Z" fill="#FFFFFF"/><path d="M214.962 239.141C214.962 241.833 212.779 244.016 210.087 244.016 207.394 244.016 205.212 241.833 205.212 239.141 205.212 236.448 207.394 234.266 210.087 234.266 212.779 234.266 214.962 236.448 214.962 239.141Z" fill="#FFFFFF"/><path d="M217.431 159.517C217.431 160.863 216.339 161.954 214.993 161.954 213.647 161.954 212.556 160.863 212.556 159.517 212.556 158.171 213.647 157.079 214.993 157.079 216.339 157.079 217.431 158.171 217.431 159.517Z" fill="#505050"/><path d="M177.889 140.717C177.889 142.064 176.798 143.155 175.452 143.155 174.106 143.155 173.014 142.064 173.014 140.717 173.014 139.371 174.106 138.28 175.452 138.28 176.798 138.28 177.889 139.371 177.889 140.717Z" fill="#FFFFFF"/><path d="M197.39 228.54C197.39 231.233 195.207 233.415 192.515 233.415 189.823 233.415 187.64 231.233 187.64 228.54 187.64 225.848 189.823 223.665 192.515 223.665 195.207 223.665 197.39 225.848 197.39 228.54Z" fill="#FFFFFF"/><path d="M271.667 550.562 277.292 550.562 254.18 611.989C258.732 612.856 263.326 613.607 267.957 614.242L291.917 550.562 291.917 535.562 278.424 539.312 271.667 539.312 271.667 550.562Z" fill="#2F2F2F"/><path d="M336.481 539.312 329.016 539.312 316.231 535.562 316.231 550.562 340.279 614.478C344.921 613.872 349.525 613.148 354.089 612.309L330.856 550.562 336.481 550.562 336.481 539.312Z" fill="#2F2F2F"/><path d="M296.979 616.645C299.643 616.722 302.316 616.766 305 616.766 307.208 616.766 309.409 616.738 311.604 616.685L311.604 550.562 296.979 550.562 296.979 616.645Z" fill="#737373"/><path d="M343.077 462.912 339.292 448.785 257.792 470.623 261.577 484.75 278.417 480.238 278.417 539.312 329.041 539.312 329.041 466.673Z" fill="#F2F2F2"/><path d="M326.454 510.25C326.454 522.676 316.38 532.75 303.954 532.75 291.527 532.75 281.454 522.676 281.454 510.25 281.454 497.824 291.527 487.75 303.954 487.75 316.38 487.75 326.454 497.824 326.454 510.25Z" fill="#D2D2D2"/><path d="M310.852 474.587C310.293 472.592 308.222 471.429 306.229 471.99L216.612 497.141 215.85 494.295 184.038 499.346C178.07 500.294 174.16 506.108 175.533 511.993 176.966 518.134 183.486 521.601 189.379 519.355L219.49 507.879 218.553 504.386 308.255 479.211C310.249 478.651 311.412 476.581 310.852 474.587Z" fill="#2F2F2F"/><path d="M303.954 499C297.741 499 292.704 504.037 292.704 510.25 292.704 513.093 293.767 515.683 295.507 517.664L302.856 510.315C303.441 509.729 304.392 509.729 304.978 510.315 305.563 510.9 305.563 511.85 304.978 512.435L297.77 519.643C299.545 520.814 301.669 521.5 303.954 521.5 310.168 521.5 315.204 516.463 315.204 510.25 315.204 504.037 310.168 499 303.954 499Z" fill="#737373"/><path d="M103.385 387.231 117.512 383.446 129.362 427.675 115.236 431.46Z" fill="#E6E6E6"/><path d="M68.159 387.548 87.4274 382.377 90.9266 395.415 71.6582 400.586Z" fill="#2F2F2F"/><path d="M126.546 371.907 144.934 366.98 148.427 380.02 130.04 384.947Z" fill="#D2D2D2"/><path d="M84.9615 377.614 137.413 363.561 143.624 386.742 91.1727 400.796Z" fill="#FFFFFF"/><path d="M86.3061 382.782 138.861 368.708 140.505 374.848 87.9505 388.923Z" fill="#F2F2F2"/><path d="M142.903 365.195 166.117 358.976 170.776 376.362 147.562 382.582Z" fill="#2F2F2F"/><path d="M138.525 468.081 73.1225 485.605 63.35 479.95 58.85 463.3 64.3902 453.004 129.79 435.48Z" fill="#737373"/><path d="M548.026 366.257 474.253 386.024 462.006 338.762 535.779 318.994Z" fill="#505050"/><path d="M85.5052 430.349 151.187 412.751 168.656 477.949 102.974 495.547Z" fill="#2F2F2F"/><path d="M164.304 461.658 98.5872 479.267 96.5735 471.725 162.284 454.12Z" fill="#505050"/><path d="M538.458 391.849 427.536 421.41 403.66 332.303 514.582 302.742Z" fill="#F2F2F2"/><path d="M411.386 369.895 526.109 339.234 536.838 379.379 422.115 410.04Z" fill="#FFFFFF"/><path d="M544.154 390.965 536.151 393.131 511.887 302.575 519.927 300.4Z"/><path d="M420.482 419.22 153.629 490.723C149.95 489.35 147.492 484.268 146.55 480.75L131.15 422.15C130.134 418.358 128.496 410.106 132.288 409.09L398.644 337.72 420.482 419.22Z" fill="#FFFFFF"/><path d="M140.116 451.331 410.001 378.991 416.39 402.828 146.506 475.168Z" fill="#F2F2F2"/><path d="M73.1232 485.604 49.919 491.723 41.1837 459.122 64.3895 453.004Z"/><path d="M234.014 381.815 250.313 377.448 272.225 459.227 255.925 463.594Z" fill="#2F2F2F"/><path d="M298.953 364.439 315.253 360.072 337.159 441.829 320.859 446.196Z" fill="#2F2F2F"/><path d="M153.867 490.659 153.867 490.659C149.942 491.711 145.908 489.381 144.855 485.457L126.827 418.171C125.775 414.246 128.104 410.211 132.03 409.16L132.03 409.16 153.867 490.659Z"/><path d="M422.925 418.825 413.418 421.373 391.531 339.592 400.975 337.075Z" fill="#2F2F2F"/><path d="M226.571 373.308 251.02 366.757 252.554 372.484 228.105 379.035Z" fill="#737373"/><path d="M291.498 355.912 315.947 349.362 317.482 355.088 293.032 361.639Z" fill="#737373"/><path d="M397.968 333.094 405.575 331.056 429.837 421.609 422.231 423.647Z"/><path d="M413.479 343.094C412.811 343.094 412.202 342.645 412.027 341.969 411.82 341.167 412.302 340.349 413.105 340.142L506.416 316.048C507.219 315.84 508.037 316.323 508.244 317.125 508.451 317.927 507.969 318.745 507.166 318.952L413.855 343.046C413.729 343.079 413.603 343.094 413.479 343.094Z" fill="#FFFFFF"/><path d="M322.872 367.279C322.208 367.279 321.6 366.835 321.423 366.163 321.211 365.362 321.688 364.541 322.488 364.329L384.433 347.918C385.234 347.707 386.055 348.182 386.267 348.983 386.479 349.784 386.002 350.605 385.201 350.817L323.257 367.229C323.128 367.263 322.999 367.279 322.872 367.279Z" fill="#F2F2F2"/><path d="M153.829 412.574C153.165 412.574 152.558 412.13 152.38 411.458 152.168 410.657 152.645 409.836 153.446 409.623L215.39 393.213C216.191 393 217.012 393.477 217.224 394.278 217.437 395.078 216.96 395.9 216.159 396.112L154.214 412.523C154.086 412.557 153.956 412.574 153.829 412.574Z" fill="#F2F2F2"/><path d="M257.882 384.838C257.221 384.838 256.616 384.398 256.435 383.73 256.219 382.93 256.691 382.107 257.49 381.89L293.49 372.14C294.29 371.924 295.114 372.396 295.331 373.196 295.547 373.995 295.074 374.819 294.275 375.035L258.275 384.785C258.144 384.822 258.012 384.838 257.882 384.838Z" fill="#F2F2F2"/><path d="M127.014 429.661C127.014 432.353 124.832 434.536 122.139 434.536 119.447 434.536 117.264 432.353 117.264 429.661 117.264 426.969 119.447 424.786 122.139 424.786 124.832 424.786 127.014 426.969 127.014 429.661Z" fill="#737373"/></g></svg>